<svg id="Capa_1" enable-background="new 0 0 513.045 513.045" height="512" viewBox="0 0 513.045 513.045" width="512" xmlns="http://www.w3.org/2000/svg"><g><g><path d="m283.729 191.923c-5.315-2.323-11.618-1.394-15.985 2.45-4.854 4.273-6.425 11.426-3.795 17.335 2.384 5.358 7.834 8.925 13.704 8.925 7.472 0 13.973-5.751 14.888-13.163.798-6.463-2.831-12.934-8.812-15.547z"/><path d="m203.542 210.681c2.079 5.894 7.866 9.952 14.11 9.952 7.085 0 13.303-5.148 14.71-12.07 1.251-6.157-1.645-12.565-7.002-15.795-5.366-3.236-12.373-2.69-17.217 1.265-4.871 3.977-6.681 10.748-4.601 16.648z"/><path d="m157.662 220.633c7.077 0 13.295-5.155 14.7-12.07 1.25-6.153-1.646-12.566-7.002-15.795-5.374-3.241-12.363-2.684-17.217 1.265-4.876 3.967-6.678 10.757-4.6 16.649 2.081 5.901 7.872 9.951 14.119 9.951z"/><path d="m283.729 131.924c-5.303-2.338-11.624-1.379-15.983 2.449-4.867 4.273-6.412 11.418-3.797 17.331 2.371 5.361 7.841 8.929 13.704 8.929 7.471 0 13.973-5.748 14.888-13.163.8-6.479-2.836-12.912-8.812-15.546z"/><path d="m217.652 160.633c7.086 0 13.303-5.147 14.71-12.07 1.251-6.156-1.645-12.565-7.002-15.795-5.367-3.236-12.372-2.691-17.217 1.265-4.87 3.977-6.681 10.749-4.6 16.649 2.078 5.894 7.865 9.951 14.109 9.951z"/><path d="m157.662 160.633c7.079 0 13.295-5.156 14.7-12.07 1.25-6.152-1.646-12.566-7.002-15.795-5.366-3.235-12.374-2.69-17.217 1.265-4.87 3.977-6.681 10.749-4.6 16.649 2.08 5.9 7.87 9.951 14.119 9.951z"/></g><g><path d="m33.959 376.429c-.096 0-.191-.007-.287-.007v11.361c0 45.493 36.879 82.372 82.372 82.372h20.691c-.074.602-.123 1.211-.123 1.833v25.535c0 8.284 6.716 15 15 15s15-6.716 15-15v-25.535c0-.622-.049-1.231-.123-1.833h180.067c-.074.602-.123 1.211-.123 1.833v25.535c0 8.284 6.716 15 15 15s15-6.716 15-15v-25.535c0-.622-.05-1.231-.123-1.833h20.691c45.493 0 82.372-36.879 82.372-82.372v-11.361c-.096 0-.19.007-.287.007z"/><path d="m479.086 278.51h-418.419v-212.1c0-19.789 16.1-35.888 35.889-35.888h32.891c5.556 0 10.857 2.385 14.542 6.543l20.409 23.023c.11.124.232.232.345.352v10.937h-9.999c-8.285 0-15 6.715-15 15 0 4.142 1.679 7.892 4.393 10.607s6.464 4.393 10.607 4.393h124.096c8.285 0 15-6.715 15-15 .001-8.284-6.715-15-15-15h-10v-18.806c0-28.745-23.303-52.048-52.048-52.048-18.413 0-34.58 9.57-43.833 23.998l-6.52-7.355c-9.376-10.577-22.859-16.643-36.993-16.643h-32.89c-36.331 0-65.889 29.557-65.889 65.888v212.261c-17.21 1.656-30.667 16.154-30.667 33.798 0 18.755 15.204 33.96 33.959 33.96h445.126c18.755 0 33.96-15.204 33.96-33.96 0-18.755-15.204-33.96-33.959-33.96z"/></g></g></svg>