<?xml version="1.0" encoding="iso-8859-1"?>
<!-- Generator: Adobe Illustrator 19.0.0, SVG Export Plug-In . SVG Version: 6.00 Build 0)  -->
<svg version="1.1" id="Capa_1" xmlns="http://www.w3.org/2000/svg" xmlns:xlink="http://www.w3.org/1999/xlink" x="0px" y="0px"
	 viewBox="0 0 480 480" style="enable-background:new 0 0 480 480;" xml:space="preserve">
<g>
	<g>
		<path d="M472,0H344c-4.418,0-8,3.582-8,8v104H232c-4.418,0-8,3.582-8,8v104H120c-4.418,0-8,3.582-8,8v104H8c-4.418,0-8,3.582-8,8
			v128c0,4.418,3.582,8,8,8h464c4.418,0,8-3.582,8-8V8C480,3.582,476.418,0,472,0z M464,464H16V352h104c4.418,0,8-3.582,8-8V240h104
			c4.418,0,8-3.582,8-8V128h104c4.418,0,8-3.582,8-8V16h112V464z"/>
	</g>
</g>
<g>
</g>
<g>
</g>
<g>
</g>
<g>
</g>
<g>
</g>
<g>
</g>
<g>
</g>
<g>
</g>
<g>
</g>
<g>
</g>
<g>
</g>
<g>
</g>
<g>
</g>
<g>
</g>
<g>
</g>
</svg>
