<?xml version="1.0" encoding="iso-8859-1"?>
<!-- Generator: Adobe Illustrator 19.0.0, SVG Export Plug-In . SVG Version: 6.00 Build 0)  -->
<svg version="1.1" id="Capa_1" xmlns="http://www.w3.org/2000/svg" xmlns:xlink="http://www.w3.org/1999/xlink" x="0px" y="0px"
	 viewBox="0 0 512.001 512.001" style="enable-background:new 0 0 512.001 512.001;" xml:space="preserve">
<g>
	<g>
		<path d="M512.001,240.697l-76.6-40.215l76.511-49.634L256,15.326L0.088,150.848l76.511,49.634L0,240.697l76.599,49.691L0,330.603
			l256,166.073l256.001-166.073l-76.599-40.215L512.001,240.697z M452.814,153.463l-50.778,32.942l-44.425-27.501l47.471-30.717
			L452.814,153.463z M228.417,206.805l-43.559,28.186l-49.61-32.183l44.824-27.284L228.417,206.805z M208.497,158.22l45.921-27.952
			l47.162,29.195L256,188.957L208.497,158.22z M256,224.653l43.594,28.208L256,281.141l-43.594-28.28L256,224.653z M283.584,206.804
			l46.191-29.888l44.461,27.523l-47.093,30.55L283.584,206.804z M374.745,112.121l-45.328,29.329l-46.292-28.657l43.216-26.306
			L374.745,112.121z M256,49.236l39.521,20.929l-40.97,24.938l-39.264-24.307L256,49.236z M184.601,87.049l41.242,25.53
			l-45.284,27.563l-43.305-28.021L184.601,87.049z M59.185,153.463l47.731-25.277l45.217,29.257l-44.787,27.262L59.185,153.463z
			 M59.273,243.427l46.164-24.237L256,316.864l150.564-97.674l46.164,24.237L256,371.048L59.273,243.427z M452.727,333.333
			L256,460.954L59.273,333.333l46.164-24.237L256,406.77l150.564-97.674L452.727,333.333z"/>
	</g>
</g>
<g>
</g>
<g>
</g>
<g>
</g>
<g>
</g>
<g>
</g>
<g>
</g>
<g>
</g>
<g>
</g>
<g>
</g>
<g>
</g>
<g>
</g>
<g>
</g>
<g>
</g>
<g>
</g>
<g>
</g>
</svg>
