<?xml version="1.0" encoding="iso-8859-1"?>
<!-- Generator: Adobe Illustrator 19.0.0, SVG Export Plug-In . SVG Version: 6.00 Build 0)  -->
<svg version="1.1" id="Capa_1" xmlns="http://www.w3.org/2000/svg" xmlns:xlink="http://www.w3.org/1999/xlink" x="0px" y="0px"
	 viewBox="0 0 512 512" style="enable-background:new 0 0 512 512;" xml:space="preserve">
<g>
	<g>
		<path d="M135.74,358.5c-1.86-1.86-4.44-2.93-7.07-2.93c-2.64,0-5.21,1.07-7.07,2.93c-1.87,1.86-2.93,4.44-2.93,7.07
			s1.06,5.21,2.93,7.07c1.86,1.86,4.43,2.93,7.07,2.93c2.63,0,5.21-1.07,7.07-2.93c1.86-1.86,2.93-4.44,2.93-7.07
			S137.6,360.36,135.74,358.5z"/>
	</g>
</g>
<g>
	<g>
		<path d="M226.4,358.5c-1.86-1.86-4.43-2.93-7.07-2.93c-2.63,0-5.21,1.07-7.07,2.93s-2.93,4.44-2.93,7.07s1.07,5.21,2.93,7.07
			c1.86,1.86,4.44,2.93,7.07,2.93c2.64,0,5.21-1.07,7.07-2.93c1.87-1.86,2.93-4.44,2.93-7.07S228.27,360.36,226.4,358.5z"/>
	</g>
</g>
<g>
	<g>
		<path d="M471.65,358.5c-1.86-1.86-4.43-2.93-7.07-2.93c-2.63,0-5.21,1.07-7.07,2.93s-2.93,4.44-2.93,7.07s1.07,5.21,2.93,7.07
			c1.86,1.86,4.44,2.93,7.07,2.93c2.64,0,5.21-1.07,7.07-2.93c1.87-1.86,2.93-4.44,2.93-7.07S473.52,360.36,471.65,358.5z"/>
	</g>
</g>
<g>
	<g>
		<path d="M436.14,96.32c-1.87-1.86-4.44-2.92-7.08-2.92c-2.63,0-5.21,1.06-7.07,2.92c-1.86,1.87-2.93,4.44-2.93,7.08
			c0,2.63,1.07,5.21,2.93,7.07c1.86,1.86,4.44,2.93,7.07,2.93c2.64,0,5.21-1.07,7.08-2.93c1.86-1.87,2.92-4.44,2.92-7.07
			C439.06,100.77,438,98.19,436.14,96.32z"/>
	</g>
</g>
<g>
	<g>
		<path d="M361.325,69.151c-3.905-3.905-10.237-3.905-14.143,0l-75.523,75.523c-3.905,3.905-3.905,10.237,0,14.143
			c1.953,1.953,4.512,2.929,7.071,2.929s5.119-0.976,7.071-2.929l75.524-75.523C365.23,79.389,365.23,73.057,361.325,69.151z"/>
	</g>
</g>
<g>
	<g>
		<path d="M150.667,114.026h-12.692c0.004-0.168,0.025-0.331,0.025-0.5V20.5C138,9.196,128.804,0,117.5,0h-27
			C79.196,0,70,9.196,70,20.5v9.843c-0.168-0.004-0.331-0.025-0.5-0.025h-27c-11.304,0-20.5,9.196-20.5,20.5v62.708
			c0,0.169,0.021,0.332,0.025,0.5H10c-5.523,0-10,4.477-10,10s4.477,10,10,10h32.5h27h21h27h33.167c5.523,0,10-4.477,10-10
			S156.19,114.026,150.667,114.026z M70,113.526c0,0.276-0.224,0.5-0.5,0.5h-27c-0.276,0-0.5-0.224-0.5-0.5V50.818
			c0-0.276,0.224-0.5,0.5-0.5h27c0.276,0,0.5,0.224,0.5,0.5V113.526z M118,113.526c0,0.276-0.224,0.5-0.5,0.5h-27
			c-0.276,0-0.5-0.224-0.5-0.5V50.818V20.5c0-0.276,0.224-0.5,0.5-0.5h27c0.276,0,0.5,0.224,0.5,0.5V113.526z"/>
	</g>
</g>
<g>
	<g>
		<polygon points="85.35,160.866 85.35,160.867 85.351,160.866 		"/>
	</g>
</g>
<g>
	<g>
		<path d="M486,228c14.336,0,26-11.664,26-26V66c0-14.336-11.664-26-26-26H230c-14.336,0-26,11.664-26,26v136
			c0,14.336,11.664,26,26,26h95v17.729c0,15.072-12.262,27.333-27.333,27.333H120.091c6.419-8.41,10.243-18.902,10.243-30.274v-24
			c0-5.523-4.477-10-10-10h-22.57c-0.097-1.227-0.232-2.517-0.415-3.855c7.135-1.102,15.637-3.878,22.105-10.468
			c12.141-12.377,10.994-31.885,10.736-34.889c-0.162-2.322-1.13-4.598-2.905-6.374c-1.746-1.746-3.976-2.71-6.258-2.896
			c-4.432-0.455-23.706-1.637-35.676,10.56c-3.438,3.503-5.78,7.58-7.371,11.706c-13.815-8.298-30.64-7.331-33.834-7.06
			c-2.334,0.154-4.626,1.124-6.41,2.908c-1.747,1.747-2.712,3.98-2.896,6.265c-0.443,4.251-1.508,20.659,6.291,34.103h-0.797
			c-5.523,0-10,4.477-10,10v24c0,11.373,3.824,21.865,10.243,30.274H10c-5.523,0-10,4.477-10,10v160c0,5.523,4.477,10,10,10h71.324
			l-12.635,46.305c-0.82,3.007-0.192,6.225,1.7,8.702c1.892,2.477,4.83,3.931,7.947,3.931h44c3.841,0,7.343-2.2,9.01-5.661
			l25.657-53.276h197.992l25.657,53.276c1.667,3.461,5.168,5.661,9.01,5.661h44c3.117,0,6.056-1.454,7.947-3.931
			c1.892-2.477,2.521-5.695,1.7-8.702l-12.635-46.305H502c5.523,0,10-4.477,10-10v-160c0-5.523-4.477-10-10-10h-83.667
			c-15.072,0-27.333-12.262-27.333-27.333V228H486z M99.624,174.876c2.454-2.5,6.334-3.77,10.081-4.363
			c-0.688,3.624-2.033,7.404-4.526,9.945c-2.441,2.488-6.24,3.828-9.886,4.513C95.894,181.288,97.15,177.396,99.624,174.876z
			 M71.045,192.286c4.167,4.089,5.961,10.664,6.634,16.285c-5.68-0.56-12.404-2.219-16.578-6.316
			c-4.11-4.034-5.77-10.772-6.321-16.548C60.354,186.397,66.873,188.193,71.045,192.286z M50.333,228.788h30.083
			c0.671,0.018,1.321,0.029,1.933,0.029c0.682,0,1.312-0.012,1.91-0.029h26.074v14c0,16.542-13.458,30-30,30s-30-13.458-30-30
			V228.788z M116.054,492H91.431l10.624-38.938h32.75L116.054,492z M164,433.063H20v-140h144V433.063z M328,433.063H184v-140h144
			V433.063z M338,272.789c-0.558,0-1.101,0.057-1.634,0.145c5.431-7.703,8.634-17.084,8.634-27.204V228h26v17.729
			c0,10.177,3.24,19.606,8.726,27.334h-39.434C339.555,272.89,338.79,272.789,338,272.789z M395.946,492l-18.752-38.938h32.75
			L420.569,492H395.946z M492,293.063v140H348v-57.495h78.333c5.523,0,10-4.477,10-10s-4.477-10-10-10H348v-62.505H492z
			 M338.602,208l69.762-69.762c3.905-3.905,3.905-10.237,0-14.143c-3.904-3.905-10.237-3.904-14.142,0l-83.313,83.313
			c-0.19,0.19-0.363,0.39-0.534,0.591H230c-3.309,0.001-6-2.69-6-5.999V66c0-3.309,2.691-6,6-6h256c3.309,0,6,2.691,6,6v136
			c0,3.309-2.691,6-6,6H338.602z"/>
	</g>
</g>
<g>
</g>
<g>
</g>
<g>
</g>
<g>
</g>
<g>
</g>
<g>
</g>
<g>
</g>
<g>
</g>
<g>
</g>
<g>
</g>
<g>
</g>
<g>
</g>
<g>
</g>
<g>
</g>
<g>
</g>
</svg>
